<svg width="24" height="24" viewBox="0 0 24 24" fill="none" xmlns="http://www.w3.org/2000/svg">
<path d="M9.73031 2.78835C11.0003 1.77935 12.7803 1.73935 14.0893 2.66835L14.2503 2.78835L20.3393 7.65935C21.0093 8.17835 21.4203 8.94936 21.4903 9.78835L21.5003 9.98935V18.0984C21.5003 20.1884 19.8493 21.8884 17.7803 21.9984H15.7903C14.8393 21.9794 14.0703 21.2394 14.0003 20.3094L13.9903 20.1684V17.3094C13.9903 16.9984 13.7593 16.7394 13.4503 16.6884L13.3603 16.6784H10.6893C10.3703 16.6884 10.1103 16.9184 10.0703 17.2184L10.0603 17.3094V20.1594C10.0603 20.2184 10.0493 20.2884 10.0403 20.3384L10.0303 20.3594L10.0193 20.4284C9.90031 21.2794 9.2003 21.9284 8.33031 21.9894L8.2003 21.9984H6.41031C4.32031 21.9984 2.61031 20.3594 2.50031 18.2984V9.98935C2.50931 9.13835 2.88031 8.34835 3.50031 7.79835L9.73031 2.78835ZM13.3803 3.87835C12.6203 3.26835 11.5403 3.23935 10.7403 3.76835L10.5893 3.87835L4.50931 8.77936C4.16031 9.03835 3.95031 9.42836 3.90031 9.83836L3.88931 9.99835V18.0984C3.88931 19.4284 4.92931 20.5184 6.25031 20.5984H8.2003C8.4203 20.5984 8.61031 20.4494 8.63931 20.2394L8.66031 20.0594L8.67031 20.0084V17.3094C8.67031 16.2394 9.4903 15.3694 10.5403 15.2884H13.3603C14.4293 15.2884 15.2993 16.1094 15.3803 17.1594V20.1684C15.3803 20.3784 15.5303 20.5594 15.7303 20.5984H17.5893C18.9293 20.5984 20.0193 19.5694 20.0993 18.2584L20.1103 18.0984V9.99835C20.0993 9.56936 19.9203 9.16835 19.6103 8.86935L19.4803 8.75835L13.3803 3.87835Z" fill="currentColor"/>
</svg>

