<svg width="20" height="18" viewBox="0 0 20 18" fill="none" xmlns="http://www.w3.org/2000/svg">
<path d="M14.5253 0C16.0392 0.0170508 17.4802 0.657936 18.5126 1.77344C19.5449 2.88895 20.0786 4.38171 19.9906 5.85897L19.9893 12.0959C20.0786 13.6183 19.5449 15.111 18.5126 16.2266C17.4802 17.3421 16.0392 17.9829 14.5168 18H5.45618C2.28665 18 0 15.4385 0 12.141V5.85897C0 2.56151 2.28665 0 5.45618 0H14.5253ZM14.5084 1.52838H5.45618C3.16279 1.52838 1.51744 3.37155 1.51744 5.85897V12.141C1.51744 14.6284 3.16279 16.4716 5.45618 16.4716H14.5084C15.6073 16.4593 16.6532 15.9941 17.4026 15.1844C18.152 14.3747 18.5393 13.2911 18.4732 12.141L18.4745 5.81389C18.5393 4.70887 18.152 3.62533 17.4026 2.81562C16.6532 2.00592 15.6073 1.54072 14.5084 1.52838ZM16.024 5.63837C16.2621 5.93792 16.24 6.36261 15.9882 6.63551L15.9058 6.71255L11.7988 10.0236C10.8013 10.8067 9.42309 10.8459 8.38304 10.1375L8.22174 10.0195L4.08726 6.71453C3.75904 6.45216 3.70412 5.97146 3.96461 5.64086C4.20141 5.34031 4.61736 5.26727 4.93763 5.4536L5.03057 5.51731L9.15981 8.81812C9.62278 9.18159 10.2575 9.20955 10.7408 8.90681L10.8583 8.82425L14.9576 5.5193C15.2847 5.25555 15.7622 5.30886 16.024 5.63837Z" fill="currentColor"/>
</svg>
